<?xml version="1.0" encoding="iso-8859-1"?>
<!-- Uploaded to: SVG Repo, www.svgrepo.com, Generator: SVG Repo Mixer Tools -->
<svg fill="#000000" height="800px" width="800px" version="1.1" id="Layer_1" xmlns="http://www.w3.org/2000/svg" xmlns:xlink="http://www.w3.org/1999/xlink" 
	 viewBox="0 0 512 512" xml:space="preserve">
<g>
	<g>
		<path d="M394.643,276.501V85.772h-54.369v32.397v10.116H85.805v-10.116V85.772H31.436V512h363.208v-52.312H308.72V276.501H394.643
			z M83.85,155.093h258.377v30.349H83.85V155.093z M213.038,456.728L213.038,456.728H83.85v-30.349h129.188V456.728z M83.85,242.538
			v-30.349h258.377v30.349H83.85z"/>
	</g>
</g>
<g>
	<g>
		<path d="M339.069,306.85L339.069,306.85v122.489h141.495V306.85H339.069z M393.43,414.569l-41.193-41.192l21.46-21.46
			l19.733,19.732l52.507-52.507l21.46,21.46L393.43,414.569z"/>
	</g>
</g>
<g>
	<g>
		<path d="M251.239,53.375V38.2c0-21.064-17.136-38.2-38.2-38.2c-21.064,0-38.2,17.136-38.2,38.2v15.175h-58.685v2.048V87.82v10.116
			h193.772V87.82V55.422v-2.048H251.239z M213.039,49.256c-6.687,0-12.108-5.421-12.108-12.108c0-6.687,5.421-12.108,12.108-12.108
			s12.108,5.421,12.108,12.108C225.148,43.834,219.726,49.256,213.039,49.256z"/>
	</g>
</g>
</svg>